<svg xmlns="http://www.w3.org/2000/svg" version="1.1" viewBox="-5.0 -10.0 110.0 135.0">
 <path d="m99.594 56.758c-0.29688-0.32422-0.71484-0.50781-1.1562-0.50781-4.7695 0-9.3359 0.55469-13.66 1.6406 1.8086-6.6055 2.7227-13.977 2.7227-21.953 0-0.46094-0.20312-0.89844-0.55469-1.1953-0.35156-0.29688-0.82031-0.42188-1.2734-0.34375-0.38281 0.066406-9.5195 1.7266-18.727 9.7344-0.75 0.64844-1.4727 1.3281-2.1797 2.0234-3.0625-12.648-13.258-21.906-13.723-22.32-0.59375-0.53125-1.4922-0.53125-2.0859 0-0.46875 0.41797-10.664 9.6719-13.723 22.32-0.70312-0.69531-1.4297-1.375-2.1797-2.0234-9.207-8.0078-18.344-9.668-18.727-9.7344-0.45312-0.078126-0.92188 0.046874-1.2734 0.34375-0.35156 0.29687-0.55469 0.73437-0.55469 1.1953 0 7.9766 0.91797 15.344 2.7227 21.953-4.3281-1.0859-8.8906-1.6406-13.66-1.6406-0.4375 0-0.85547 0.1875-1.1562 0.50781-0.29688 0.32422-0.44141 0.75781-0.40234 1.1953 0.03125 0.36328 0.85937 9 5.4453 17.77 6.1641 11.793 16.164 18.023 28.922 18.023h31.25c12.758 0 22.758-6.2344 28.922-18.023 4.582-8.7656 5.4141-17.406 5.4453-17.77 0.039063-0.4375-0.10547-0.87109-0.40234-1.1953zm-30.727-10.156c6.1953-5.4297 12.469-7.7734 15.488-8.6562-0.15625 7.6797-1.2109 14.719-3.1328 20.977-2.375 0.78906-4.6719 1.7422-6.8828 2.875-5.7539 2.9453-10.922 7.043-15.363 12.188-3.1172 3.6094-5.4219 7.1953-7.0625 10.195 1.4141-16.133 7.2031-29.023 16.961-37.57zm-18.867-19.422c2.8086 2.8477 10.422 11.387 12.145 21.781-3.1953 3.7148-5.8594 7.9688-7.9609 12.711-1.832 4.1406-3.2266 8.6602-4.1875 13.523-0.96094-4.8672-2.3555-9.3828-4.1875-13.523-2.0977-4.7422-4.7656-9-7.9609-12.711 1.7148-10.375 9.3398-18.93 12.148-21.781zm-34.355 10.758c2.9922 0.87109 9.1797 3.1797 15.363 8.5547 9.832 8.5508 15.664 21.477 17.086 37.684-1.6406-3-3.9492-6.5859-7.0664-10.195-4.4414-5.1406-9.6094-9.2422-15.363-12.188-2.2109-1.1328-4.5078-2.0859-6.8828-2.875-1.9258-6.2578-2.9766-13.297-3.1328-20.977zm18.73 52.688c-11.656 0-20.438-5.4727-26.109-16.266-3.1484-5.9922-4.4375-12.07-4.9062-14.953 14.234 0.42969 26.078 5.9844 35.227 16.531 5.043 5.8125 7.8945 11.695 9.1484 14.695h-13.355zm57.359-16.266c-5.6719 10.797-14.461 16.266-26.109 16.266h-13.355c1.2539-3 4.1055-8.8828 9.1484-14.695 9.1484-10.547 20.992-16.102 35.227-16.531-0.46875 2.8906-1.7578 8.9609-4.9062 14.953z"/>
 <path d="m50 17.188c0.86328 0 1.5625-0.69922 1.5625-1.5625v-7.8125c0-0.86328-0.69922-1.5625-1.5625-1.5625s-1.5625 0.69922-1.5625 1.5625v7.8125c0 0.86328 0.69922 1.5625 1.5625 1.5625z"/>
 <path d="m37.812 22.812c0.30469 0.41016 0.77344 0.625 1.25 0.625 0.32812 0 0.65625-0.10156 0.9375-0.3125 0.6875-0.51562 0.82812-1.5 0.3125-2.1875l-4.6875-6.25c-0.51562-0.6875-1.4961-0.82812-2.1875-0.3125-0.6875 0.51562-0.82812 1.5-0.3125 2.1875z"/>
 <path d="m60 23.125c0.28125 0.21094 0.60938 0.3125 0.9375 0.3125 0.47656 0 0.94531-0.21484 1.25-0.625l4.6875-6.25c0.51562-0.6875 0.375-1.6719-0.3125-2.1875s-1.6719-0.37891-2.1875 0.3125l-4.6875 6.25c-0.51562 0.6875-0.375 1.6719 0.3125 2.1875z"/>
<text x="0.0" y="117.5" font-size="5.0" font-weight="bold" font-family="Arbeit Regular, Helvetica, Arial-Unicode, Arial, Sans-serif" fill="#000000">Created by Edy Subiyanto</text><text x="0.0" y="122.5" font-size="5.0" font-weight="bold" font-family="Arbeit Regular, Helvetica, Arial-Unicode, Arial, Sans-serif" fill="#000000">from Noun Project</text></svg>